<svg xmlns="http://www.w3.org/2000/svg" width="30.67" height="25.176" viewBox="0 0 30.67 25.176">
  <g id="photo-camera-svgrepo-com" transform="translate(0.35 -5.15)">
    <path id="Path_331" data-name="Path 331" d="M27.573,10.5H23.315l-2-5H8.653l-2,5H5.994V8H3v2.5H2.4a2.4,2.4,0,0,0-2.4,2.4V27.562a2.417,2.417,0,0,0,2.414,2.414H27.556a2.417,2.417,0,0,0,2.414-2.414V12.892A2.4,2.4,0,0,0,27.573,10.5ZM4,9H5v1.5H4ZM28.971,27.562a1.416,1.416,0,0,1-1.415,1.415H2.414A1.417,1.417,0,0,1,1,27.562V12.892a1.4,1.4,0,0,1,1.4-1.4H7.331l2-5H20.641l2,5h4.934a1.4,1.4,0,0,1,1.4,1.4V27.562Z" stroke="#000" stroke-width="0.7"/>
    <path id="Path_332" data-name="Path 332" d="M20.991,14.5a8.991,8.991,0,1,0,8.991,8.991A9,9,0,0,0,20.991,14.5Zm0,16.983a7.992,7.992,0,1,1,7.992-7.992A8,8,0,0,1,20.991,31.483Z" transform="translate(-6.006 -4.504)" stroke="#000" stroke-width="0.7"/>
    <path id="Path_333" data-name="Path 333" d="M23.994,20.5a5.994,5.994,0,1,0,5.994,5.994A6,6,0,0,0,23.994,20.5Zm0,10.989a5,5,0,1,1,5-5A5,5,0,0,1,23.994,31.489Z" transform="translate(-9.009 -7.507)" stroke="#000" stroke-width="0.7"/>
    <path id="Path_334" data-name="Path 334" d="M50,19.5a2,2,0,1,0,2,2A2,2,0,0,0,50,19.5Zm0,3a1,1,0,1,1,1-1A1,1,0,0,1,50,22.5Z" transform="translate(-24.024 -7.007)" stroke="#000" stroke-width="0.7"/>
  </g>
</svg>
