<?xml version="1.0" standalone="no"?>
<!DOCTYPE svg PUBLIC "-//W3C//DTD SVG 20010904//EN"
 "http://www.w3.org/TR/2001/REC-SVG-20010904/DTD/svg10.dtd">
<svg version="1.0" xmlns="http://www.w3.org/2000/svg"
 width="2048.000000pt" height="2048.000000pt" viewBox="0 0 2048.000000 2048.000000"
 preserveAspectRatio="xMidYMid meet">

<g transform="translate(0.000000,2048.000000) scale(0.100000,-0.100000)"
fill="#000000" stroke="none">
<path d="M4610 16479 c-247 -28 -495 -102 -735 -219 -692 -337 -1154 -989
-1250 -1760 -13 -110 -15 -651 -15 -4745 0 -4063 2 -4636 15 -4749 48 -405
192 -764 438 -1096 92 -123 326 -357 447 -446 355 -262 718 -401 1155 -444 90
-8 1653 -10 6255 -8 5751 3 6142 5 6239 21 690 114 1260 497 1608 1082 142
237 234 485 290 785 17 91 18 320 18 4845 0 4578 -1 4754 -19 4855 -59 337
-172 621 -356 895 -361 538 -944 897 -1588 979 -111 14 -744 16 -6275 15
-3384 -1 -6186 -5 -6227 -10z m12330 -1503 c153 -23 291 -90 402 -194 53 -49
148 -176 148 -197 0 -12 -6597 -4637 -6633 -4651 -12 -4 -1000 682 -3314 2301
-1814 1269 -3308 2318 -3321 2329 l-23 22 40 61 c115 178 309 300 526 332 34
5 2730 9 6070 10 5171 1 6023 -1 6105 -13z m-9630 -4417 c1814 -1270 3166
-2210 3210 -2231 98 -49 173 -69 290 -75 152 -9 311 32 435 111 28 19 1463
1022 3189 2230 1726 1208 3139 2196 3142 2196 2 0 4 -1707 4 -3792 0 -3689 -1
-3796 -19 -3885 -55 -266 -243 -472 -516 -564 l-70 -24 -6130 0 -6130 0 -80
28 c-119 42 -210 99 -300 191 -90 92 -135 161 -179 279 l-31 82 -3 3843 -2
3843 27 -19 c16 -10 1439 -1006 3163 -2213z"/>
</g>
</svg>
