<?xml version="1.0" standalone="no"?>
<!DOCTYPE svg PUBLIC "-//W3C//DTD SVG 20010904//EN"
 "http://www.w3.org/TR/2001/REC-SVG-20010904/DTD/svg10.dtd">
<svg version="1.0" xmlns="http://www.w3.org/2000/svg"
 width="2000.000000pt" height="2000.000000pt" viewBox="0 0 2000.000000 2000.000000"
 preserveAspectRatio="xMidYMid meet">

<g transform="translate(0.000000,2000.000000) scale(0.100000,-0.100000)"
fill="#000000" stroke="none">
<path d="M6805 15984 c-218 -30 -375 -115 -636 -344 -220 -193 -299 -261 -366
-312 -527 -406 -989 -1070 -1192 -1715 -126 -400 -177 -704 -187 -1126 -9
-339 14 -667 66 -942 41 -216 51 -262 91 -420 198 -789 640 -1705 1246 -2587
68 -99 154 -221 192 -271 37 -51 101 -137 141 -192 115 -157 357 -460 554
-695 789 -939 1607 -1713 2392 -2262 938 -656 1825 -1017 2730 -1112 222 -24
642 -21 849 4 344 42 609 106 890 213 180 69 439 196 608 299 227 138 428 292
617 472 52 50 172 158 266 239 312 268 432 412 498 595 29 82 31 95 30 222 0
111 -4 149 -23 210 -80 264 -300 557 -662 884 -762 688 -1181 985 -1562 1110
-407 134 -771 66 -1117 -208 -165 -131 -490 -423 -628 -567 -162 -167 -224
-221 -337 -286 -378 -219 -855 -114 -1447 320 -224 164 -372 292 -629 542
-652 634 -1311 1470 -1600 2030 -330 641 -358 1108 -88 1450 70 89 129 141
284 255 77 57 163 120 190 140 28 21 95 77 150 125 55 48 164 143 242 211 241
211 374 392 441 604 55 173 64 412 23 610 -29 142 -127 408 -217 590 -104 212
-360 630 -642 1048 -384 573 -720 847 -1059 866 -43 2 -91 2 -108 0z"/>
</g>
</svg>
